<?xml version="1.0" encoding="utf-8"?>
<!-- Generator: Adobe Illustrator 26.5.0, SVG Export Plug-In . SVG Version: 6.00 Build 0)  -->
<svg fill="#818384" version="1.1" id="Layer_1" xmlns="http://www.w3.org/2000/svg" xmlns:xlink="http://www.w3.org/1999/xlink" x="0px" y="0px"
	 viewBox="0 0 569.3 565.2" style="enable-background:new 0 0 569.3 565.2;" xml:space="preserve">
<g>
	<path d="M284.8,159.5c47.8,0,87.6,39.8,87.6,87.6s-39.8,86.3-87.6,86.3s-86.3-38.5-86.3-86.3S237,159.5,284.8,159.5L284.8,159.5z
		 M284.8,184.7c-33.2,0-61,27.9-61,62.4c0,33.2,27.9,61,61,61c34.5,0,62.4-27.9,62.4-61C347.1,212.6,319.3,184.7,284.8,184.7
		L284.8,184.7z"/>
	<path d="M284.8,4.2c78.3,0,147.3,31.8,199,82.3c50.4,50.4,80.9,120.8,80.9,197.7c0,78.3-30.5,147.3-80.9,199
		c-51.8,50.4-120.8,80.9-199,80.9c-77,0-147.3-30.5-197.7-80.9C36.6,431.5,4.7,362.5,4.7,284.2c0-77,31.8-147.3,82.3-197.7
		C137.4,36.1,207.8,4.2,284.8,4.2L284.8,4.2z M217.1,345.3h136.7c61,0,114.1,41.1,131.4,96.9c34.5-42.5,54.4-98.2,54.4-157.9
		c0-70.3-27.9-134-74.3-180.5c-46.4-45.1-110.1-74.3-180.5-74.3c-70.3,0-134,29.2-180.5,74.3C59.2,150.2,30,213.9,30,284.2
		c0,59.7,21.2,115.4,55.7,157.9C101.6,386.4,154.7,345.3,217.1,345.3L217.1,345.3z M463.9,466c-8-54.4-54.4-95.5-110.1-95.5H217.1
		c-57.1,0-103.5,41.1-111.5,95.5c46.4,45.1,110.1,73,179.1,73C355.1,539,418.8,511.2,463.9,466L463.9,466z"/>
</g>
</svg>
