<?xml version="1.0" encoding="utf-8"?>
<!-- Generator: Adobe Illustrator 26.5.0, SVG Export Plug-In . SVG Version: 6.00 Build 0)  -->
<svg fill="#818384" version="1.1" id="Layer_1" xmlns="http://www.w3.org/2000/svg" xmlns:xlink="http://www.w3.org/1999/xlink" x="0px" y="0px"
	 viewBox="0 0 420 420" style="enable-background:new 0 0 420 420;" xml:space="preserve">
<g>
	<path d="M420,212.8c0-4.5-3.9-8.4-8.4-8.4l-196,0V8.4c0-4.5-3.9-8.4-8.4-8.4c-4.5,0-8.4,3.9-8.4,8.4v196H8.4
		c-4.5,0-8.4,3.9-8.4,8.4c0,4.5,3.9,8.4,8.4,8.4h190.4v190.4c0,4.5,3.9,8.4,8.4,8.4c4.5,0,8.4-3.9,8.4-8.4V221.2h196
		C416.1,221.2,420,217.3,420,212.8L420,212.8z"/>
</g>
</svg>
