<?xml version="1.0" encoding="utf-8"?>
<!-- Generator: Adobe Illustrator 26.5.0, SVG Export Plug-In . SVG Version: 6.00 Build 0)  -->
<svg version="1.1" id="Layer_1" xmlns="http://www.w3.org/2000/svg" xmlns:xlink="http://www.w3.org/1999/xlink" x="0px" y="0px"
	 viewBox="0 0 527 527" style="enable-background:new 0 0 527 527;" xml:space="preserve">
<g>
	<path fill="#818384" d="M41,242.6h11.2v235.2c0,11.9,4.7,23.3,13.1,31.7c8.4,8.4,19.8,13.1,31.7,13.1h336c11.9,0,23.3-4.7,31.7-13.1
		c8.4-8.4,13.1-19.8,13.1-31.7V242.6H489c8.9,0,17.4-3.6,23.8-9.9c6.3-6.3,9.8-14.8,9.9-23.8v-56c0-8.9-3.6-17.4-9.9-23.8
		c-6.3-6.3-14.8-9.8-23.8-9.9h-55.4c13.4-11.7,21.3-28.6,21.8-46.4c0.5-17.8-6.5-35.1-19.3-47.5c-12.8-12.5-30.2-19-48-18.1
		c-49.4,0-101.6,69.9-123.2,102.4C243.4,77.3,191.2,7.4,141.8,7.4c-17.8-0.9-35.2,5.6-48,18.1C81,37.9,74.1,55.2,74.5,73
		c0.5,17.8,8.4,34.7,21.8,46.4H41c-8.9,0-17.4,3.6-23.8,9.9c-6.3,6.3-9.8,14.8-9.9,23.8v56c0,8.9,3.6,17.4,9.9,23.8
		C23.6,239,32.1,242.6,41,242.6L41,242.6z M74.6,477.8V242.6H209v257.6H97c-5.9,0-11.6-2.4-15.8-6.6C77,489.4,74.6,483.7,74.6,477.8
		L74.6,477.8z M197.8,141.8h134.4v78.4H197.8V141.8z M231.4,500.2l0-257.6h67.2l0,257.6H231.4z M455.4,477.8L455.4,477.8
		c0,5.9-2.4,11.6-6.6,15.8c-4.2,4.2-9.9,6.6-15.8,6.6H321V242.6h134.4L455.4,477.8z M500.2,153v56h0c0,6.2-5,11.2-11.2,11.2H354.6
		v-78.4H489C495.2,141.8,500.2,146.8,500.2,153L500.2,153z M388.2,29.8c12.1-0.8,24,3.6,32.6,12.2c8.6,8.6,13,20.5,12.2,32.6
		c0,20.4-24.5,38.2-36.4,44.8l-111.1,0C309.4,84.5,353.9,29.8,388.2,29.8L388.2,29.8z M97,74.6c-0.8-12.1,3.6-24,12.2-32.6
		c8.6-8.6,20.5-13,32.6-12.2c34.3,0,78.9,54.7,102.7,89.6l-111,0C125.3,114.8,97,96.9,97,74.6L97,74.6z M29.8,153
		c0-6.2,5-11.2,11.2-11.2h134.4v78.4H41c-6.2,0-11.2-5-11.2-11.2V153z"/>
</g>
</svg>
