<?xml version="1.0" encoding="utf-8"?>
<!-- Generator: Adobe Illustrator 26.5.0, SVG Export Plug-In . SVG Version: 6.00 Build 0)  -->
<svg fill="#818384" version="1.1" id="Layer_1" xmlns="http://www.w3.org/2000/svg" xmlns:xlink="http://www.w3.org/1999/xlink" x="0px" y="0px"
	 viewBox="0 0 308.2 294.6" style="enable-background:new 0 0 308.2 294.6;" xml:space="preserve">
<g>
	<path d="M109.3,248.1h11.2c0,18.6,15,33.6,33.6,33.6s33.6-15,33.6-33.6h11.2c0,24.7-20.1,44.8-44.8,44.8S109.3,272.8,109.3,248.1z
		 M294.1,214.5v5.6c0,9.3-7.5,16.8-16.8,16.8H30.9c-9.3,0-16.8-7.5-16.8-16.8v-5.6c0-18.5,15-33.6,33.6-33.6v-72.8
		C47.7,49.3,95.3,1.7,154.1,1.7s106.4,47.6,106.4,106.4v72.8C279.1,180.9,294.1,195.9,294.1,214.5L294.1,214.5z M260.4,192.1
		c-6.2,0-11.1-5-11.1-11.2v-72.8c0-52.6-42.6-95.2-95.2-95.2s-95.2,42.6-95.2,95.2v72.8c0,6.2-5,11.2-11.1,11.2
		c-12.4,0-22.5,10-22.5,22.4v5.6c0,3.1,2.5,5.6,5.6,5.6h246.4c3.1,0,5.6-2.5,5.6-5.6v-5.6C282.9,202.1,272.9,192.1,260.4,192.1
		L260.4,192.1z"/>
</g>
</svg>
