<?xml version="1.0" encoding="utf-8"?>
<!-- Generator: Adobe Illustrator 26.5.0, SVG Export Plug-In . SVG Version: 6.00 Build 0)  -->
<svg version="1.1" id="Layer_1" xmlns="http://www.w3.org/2000/svg" xmlns:xlink="http://www.w3.org/1999/xlink" x="0px" y="0px"
	 viewBox="0 0 445 445" style="enable-background:new 0 0 445 445;" xml:space="preserve">
<g>
	<path fill="#818384" d="M424.1,12.5H20.9c-9.5,0-16.8,7.3-16.8,16.8v302.4c0,9.5,7.3,16.8,16.8,16.8h67.2v67.2c0,6.7,3.9,12.9,10.6,15.7
		c2.2,0.6,3.9,1.1,6.2,1.1c4.5,0,9-1.7,12.3-5l75-79h231.8c9.5,0,16.8-7.3,16.8-16.8l0-302.4C440.9,19.8,433.6,12.5,424.1,12.5
		L424.1,12.5z M407.3,314.9H185c-4.5,0-9,1.7-12.3,5l-51,53.8v-42c0-9.5-7.3-16.8-16.8-16.8H37.7V46.1h369.6L407.3,314.9z"/>
</g>
</svg>
