<?xml version="1.0" encoding="utf-8"?>
<!-- Generator: Adobe Illustrator 26.5.0, SVG Export Plug-In . SVG Version: 6.00 Build 0)  -->
<svg version="1.1" id="Layer_1" xmlns="http://www.w3.org/2000/svg" xmlns:xlink="http://www.w3.org/1999/xlink" x="0px" y="0px"
	 viewBox="0 0 478 478" style="enable-background:new 0 0 478 478;" xml:space="preserve">
<g>
	<path d="M132.4,177.3c-1.5-13.1-14.8-24.4-23.4-18.8c-23.3,17-40.5,62.8-48.7,95.8c-7.3,29.6-3.8,60.1,2.2,89.7
		c13.2,65.1,72.9,113.1,135.5,127.7c61.1,14.2,138,3.2,180.7-46.5c22.8-26.6,38.2-60.1,42.1-95c4-36-8.1-66.4-29.9-94.4
		c-25.4-32.7-57.7-59.5-78.5-95.6c-17.7-30.8-43.4-76-20.1-109.9c9.4-13.6-6.3-34.6-22.1-28.8c-94.6,35.1-124.4,133.6-110.8,224.9
		C145.3,213.2,134.6,196.2,132.4,177.3L132.4,177.3z M183.8,285.6c13.8,5.2,28.3-10.6,24-24c-21.7-66.6-19.6-155.3,36-201.4
		c0.1,41.1,23.9,85.3,45.8,116.3c33.8,48,105.5,90.4,92.4,157c-6.2,31.8-24.9,65.3-52.6,83.2c-22.7,14.6-51.9,20.7-78.6,21.2
		c-56.3,1-112.5-25.4-140.4-75.8C84.7,315.8,94,264,103.1,213.8C118.5,247.1,148.4,272.3,183.8,285.6L183.8,285.6z"/>
</g>
</svg>
