<?xml version="1.0" encoding="utf-8"?>
<!-- Generator: Adobe Illustrator 26.5.0, SVG Export Plug-In . SVG Version: 6.00 Build 0)  -->
<svg version="1.1" id="Layer_1" xmlns="http://www.w3.org/2000/svg" xmlns:xlink="http://www.w3.org/1999/xlink" x="0px" y="0px"
	 viewBox="0 0 532.6 531.2" style="enable-background:new 0 0 532.6 531.2;" xml:space="preserve">
<g>
	<path d="M266.6,531.2c-9,0-17.4-4.5-22.4-11.8l-21.8-31.9l-32.5,20.7c-7.3,5-16.8,5.6-25.2,2.2c-8.4-3.4-14-10.6-16.2-19.6
		l-8.4-37.5l-38.1,6.7c-9,1.7-17.9-1.1-24.1-7.3c-6.2-6.2-9-15.1-7.3-24.1l6.7-38.1l-37-7.3c-9-1.7-15.7-7.8-19.6-16.2
		c-3.4-8.4-2.8-17.4,2.2-25.2l20.7-32.5l-31.9-21.8C4.5,282.5,0,274.1,0,265.2c0-9,4.5-17.4,11.8-22.4l31.9-21.8L23,188.4
		c-5-7.3-5.6-16.8-2.2-25.2c3.4-8.4,10.6-14,19.6-16.2l37.5-8.4l-6.7-38.1c-1.7-9,1.1-17.9,7.3-24.1c6.2-6.2,15.1-9,24.1-7.3
		l38.1,6.7l8.4-37.5c1.7-9,7.8-15.7,16.2-19.6c8.4-3.4,17.4-2.8,25.2,2.2l32.5,20.7l21.3-30.8c10.1-14.6,34.7-14.6,44.8,0l21.8,31.9
		l32.5-20.7c7.3-5,16.8-5.6,25.2-2.2c8.4,3.4,14,10.6,16.2,19.6l8.4,37.5l38.1-6.7c9-1.7,17.9,1.1,24.1,7.3c6.2,6.2,9,15.1,7.3,24.1
		l-6.7,38.1l37.5,8.4c9,1.7,15.7,7.8,19.6,16.2c3.9,8.4,2.8,17.4-2.2,25.2l-21.8,31.4l31.9,21.8c7.3,5,11.8,13.4,11.8,22.4
		c0,9-4.5,17.4-11.8,22.4l-31.9,21.8l20.7,32.5c5,7.3,5.6,16.8,2.2,25.2c-3.4,8.4-10.6,14-19.6,16.2l-37.5,8.4l6.7,38.1
		c1.7,9-1.1,17.9-7.3,24.1c-6.2,6.2-15.1,9-24.1,7.3l-38.1-6.7l-8.4,37.5c-1.7,9-7.8,15.7-16.2,19.6c-8.4,3.4-17.4,2.8-25.2-2.2
		l-32.5-20.7L289,519.4C283.9,527.2,275.5,531.2,266.6,531.2L266.6,531.2z M224.6,450c8.4,0,16.8,3.9,22.4,11.8l19.6,28.6l19.6-28.6
		c8.4-12.3,24.6-15.1,37-7.3l29.1,19l7.3-34.2c3.4-14.6,16.8-23.5,31.4-20.7l34.2,6.2l-6.2-34.2c-2.8-14.6,6.7-28.6,20.7-31.4
		l34.2-7.3l-19-29.1c-7.8-12.3-4.5-28.6,7.3-37l28.6-19.6L462,246.7c-12.3-8.4-15.1-24.6-7.3-37l19-29.1l-34.2-7.3
		c-14.6-3.4-23.5-16.8-20.7-31.4l6.2-34.2l-34.2,6.2c-14.6,2.8-28-6.7-31.4-20.7l-7.3-34.2l-29.1,19c-12.3,7.8-28.6,4.5-37-7.3
		L266.6,40L247,68.6c-8.4,12.3-24.6,15.1-37,7.3l-29.1-19L173.6,91c-3.4,14.6-16.8,23.5-31.4,20.7l-34.2-6.2l6.2,34.2
		c2.8,14.6-6.7,28.6-20.7,31.4l-34.2,7.3l19,29.1c7.8,12.3,4.5,28.6-7.3,37L42.6,264l28.6,19.6c12.3,8.4,15.1,24.6,7.3,37l-19,29.1
		l34.2,7.3c14.6,3.4,23.5,16.8,20.7,31.4l-6.2,34.2l34.2-6.2c14.6-2.8,28.6,6.7,31.4,20.7l7.3,34.2l29.1-19
		C214.5,451.6,219.5,450,224.6,450L224.6,450z"/>
</g>
</svg>
