<?xml version="1.0" encoding="utf-8"?>
<!-- Generator: Adobe Illustrator 26.5.0, SVG Export Plug-In . SVG Version: 6.00 Build 0)  -->
<svg version="1.1" id="Layer_1" xmlns="http://www.w3.org/2000/svg" xmlns:xlink="http://www.w3.org/1999/xlink" x="0px" y="0px"
	 viewBox="0 0 547 547" style="enable-background:new 0 0 547 547;" xml:space="preserve">
<g>
	<path d="M476.1,8.1H70.9C36.3,8.1,8.1,36.3,8.1,70.9v405.2c0,34.6,28.1,62.7,62.7,62.7h405.2c34.6,0,62.7-28.1,62.7-62.7l0-405.2
		C538.8,36.3,510.7,8.1,476.1,8.1L476.1,8.1z M70.9,41.3h405.2c16.3,0,29.6,13.3,29.6,29.6v342.8L257.3,165.3
		c-12.6-12.6-29.3-19.5-47.2-19.5c-17.9,0-34.6,6.9-47.2,19.5L41.3,287V70.9C41.3,54.6,54.6,41.3,70.9,41.3L70.9,41.3z M476.1,505.7
		H70.9c-16.3,0-29.6-13.3-29.6-29.6V333.9l145.2-145.2c6.3-6.3,14.7-9.8,23.7-9.8c9,0,17.4,3.5,23.7,9.8l271.8,271.8v15.6
		C505.7,492.4,492.4,505.7,476.1,505.7L476.1,505.7z M402.8,211.1c35.2,0,63.9-28.7,63.9-63.9c0-35.2-28.7-63.9-63.9-63.9
		c-35.2,0-63.9,28.7-63.9,63.9C338.9,182.4,367.5,211.1,402.8,211.1z M402.8,116.5c16.9,0,30.7,13.8,30.7,30.7s-13.8,30.7-30.7,30.7
		c-16.9,0-30.7-13.8-30.7-30.7C372.1,130.3,385.8,116.5,402.8,116.5z"/>
</g>
</svg>
