<?xml version="1.0" encoding="utf-8"?>
<!-- Generator: Adobe Illustrator 26.5.0, SVG Export Plug-In . SVG Version: 6.00 Build 0)  -->
<svg version="1.1" id="Layer_1" xmlns="http://www.w3.org/2000/svg" xmlns:xlink="http://www.w3.org/1999/xlink" x="0px" y="0px"
	 viewBox="0 0 560.4 560.4" style="enable-background:new 0 0 560.4 560.4;" xml:space="preserve">
<path d="M417.6,26.9c-6.1-6.1-14.9-12.5-26.1-17.7c-11.1-5.1-24.7-9-39.8-9H124c-43.6,0-79,35.5-79,79.2v401.5
	c0,43.8,35.4,79.3,79,79.3h312.3c43.7,0,79.1-35.5,79.1-79.3V164.1c0-15.2-4-28.9-9.2-40c-5.3-11.2-11.7-19.9-17.8-26.1L417.6,26.9
	 M395.2,49.4l70.8,71c3.2,3.1,7.9,9.4,11.5,17.2c3.7,7.8,6.2,17,6.2,26.5v316.9c0,26.3-21.2,47.5-47.4,47.6H124.1
	c-26.2,0-47.4-21.3-47.4-47.6l0-401.5c0-26.3,21.2-47.5,47.4-47.6h227.6c9.6,0,18.8,2.5,26.5,6.1C385.9,41.5,392.2,46.3,395.2,49.4
	 M162,339.4c-8.9,0-16.1-7.1-16.1-16c0-8.8,7.2-16,16.1-16h236.6c8.9,0,16.2,7.1,16.2,16c0,8.8-7.2,16-16.2,16H162 M162,446.6
	c-8.9,0-16.1-7.1-16.1-15.9c0-8.8,7.2-16,16.1-16h236.6c8.9,0,16.2,7.1,16.2,16c0,8.8-7.2,15.9-16.2,15.9H162 M162,232.1
	c-8.9,0-16.1-7.1-16.1-15.9c0-8.8,7.2-15.9,16.1-15.9h236.6c8.9,0,16.2,7.1,16.2,15.9c0,8.8-7.2,15.9-16.2,15.9H162"/>
</svg>
