<?xml version="1.0" encoding="utf-8"?>
<!-- Generator: Adobe Illustrator 26.5.0, SVG Export Plug-In . SVG Version: 6.00 Build 0)  -->
<svg version="1.1" id="Layer_1" xmlns="http://www.w3.org/2000/svg" xmlns:xlink="http://www.w3.org/1999/xlink" x="0px" y="0px"
	 viewBox="0 0 510 510" style="enable-background:new 0 0 510 510;" xml:space="preserve">
<g>
	<path d="M254,506.1c49.7,0,98.2-14.6,139.5-42.2c41.3-27.6,73.5-66.8,92.6-112.6c19-45.9,24-96.4,14.4-145.1S467,112.7,431.9,77.6
		C396.7,42.4,352,18.5,303.3,8.8C254.6-0.9,204.1,4.1,158.2,23c-45.9,19-85.1,51.2-112.7,92.5C17.9,156.8,3.2,205.4,3.2,255
		c0.1,66.5,26.5,130.3,73.5,177.4S187.5,506,254,506.1L254,506.1z M254,39.4c42.8,0,84.6,12.6,120.1,36.3
		c35.6,23.7,63.3,57.5,79.7,97s20.7,83,12.4,124.9c-8.3,41.9-28.9,80.5-59.1,110.7s-68.8,50.8-110.7,59.1s-85.4,4-124.9-12.4
		c-39.5-16.4-73.2-44.1-97-79.7C50.8,339.8,38.1,298,38.2,255.3c0-57.3,22.7-112.2,63.2-152.7c40.5-40.5,95.4-63.3,152.6-63.4
		L254,39.4z"/>
	<path d="M311.6,348.4c3.3,3.3,7.7,5.1,12.4,5.1s9.1-1.8,12.4-5.1c3.3-3.3,5.1-7.7,5.1-12.4s-1.8-9.1-5.1-12.4l-64.9-64.9V102.7
		c0-6.3-3.3-12-8.8-15.2s-12.1-3.1-17.5,0s-8.8,8.9-8.8,15.2V266c0,4.6,1.9,9.1,5.1,12.4L311.6,348.4z"/>
</g>
</svg>
