<?xml version="1.0" encoding="utf-8"?>
<!-- Generator: Adobe Illustrator 26.5.0, SVG Export Plug-In . SVG Version: 6.00 Build 0)  -->
<svg version="1.1" id="Layer_1" xmlns="http://www.w3.org/2000/svg" xmlns:xlink="http://www.w3.org/1999/xlink" x="0px" y="0px"
	 viewBox="0 0 539 539" style="enable-background:new 0 0 539 539;" xml:space="preserve">
<g>
	<path d="M414.5,302.5c82-96.4,151.2-232.2,100.7-282.6c-32.9-32.9-97.4-12.6-145.7,10.3c-45.4,21.5-94.2,53.9-137,90.4l-68.1-8.8
		c-5.8-1.2-22.8-0.7-144.6,61.8l-1.9,1l-1.5,1.6c-12.7,12.7-17.6,30.8-13,48.2c4.5,17.1,17.2,30.2,34.1,35.2l68.3,28.5l-25.5,45.5
		c-13.1,20.8-10,48.3,7.3,65.6l48.4,48.4c10.1,10.2,23.7,15.4,37.4,15.4c9.7,0,19.5-2.7,28.2-8.1l45.5-25.5l28.5,68.3
		c5,16.9,18.1,29.6,35.2,34.1c4.3,1.1,8.7,1.7,13,1.7c13.1,0,25.6-5.1,35.2-14.7l1.5-1.5l1-1.9c62.5-121.7,63-138.7,61.8-144.5
		L414.5,302.5z M381.5,55.4c34.6-16.4,64.2-24.8,85.6-24.8c12.6,0,22.4,3,28.4,9c35.3,35.3-33.8,179.1-134.4,279.8
		c-38.6,38.6-78.9,67.1-109.8,77.9L137.8,283.8c10.8-30.8,39.3-71.2,77.9-109.8C263.3,126.4,325.3,82.1,381.5,55.4L381.5,55.4z
		 M45.8,232.9c-7.7-2.1-13.4-8-15.5-15.7c-1.9-7.1-0.2-14.4,4.4-19.9c52-26.7,113.7-55.7,126-57.9l44.4,5.8c-3.2,3-6.3,6.1-9.3,9.1
		c-37.1,37.1-65.1,75.2-79.5,107.9l-68.9-28.7L45.8,232.9z M187.6,430.6l-0.7,0.4c-9.8,6.3-22.9,4.9-31.1-3.3l-48.4-48.4
		c-8.2-8.2-9.6-21.3-3.3-31.1l21.1-37.5l99.3,99.3L187.6,430.6z M337.8,500.2c-5.5,4.6-12.8,6.3-19.9,4.4c-7.7-2-13.6-7.8-15.7-15.5
		l-29.3-70.5c32.7-14.5,70.8-42.4,107.9-79.5v0c3-3,6.1-6.1,9.1-9.3l5.8,44.4C393.5,386.7,365,447.1,337.8,500.2L337.8,500.2z"/>
	<path d="M332.7,270.9c18.3,0,35.5-7.1,48.5-20.1c12.9-12.9,20.1-30.2,20.1-48.5c0-18.3-7.1-35.5-20.1-48.5
		c-12.9-12.9-30.2-20.1-48.5-20.1s-35.5,7.1-48.5,20.1c-12.9,12.9-20.1,30.2-20.1,48.5c0,18.3,7.1,35.5,20.1,48.5
		C297.2,263.8,314.4,270.9,332.7,270.9z M303.9,173.7c7.9-7.9,18.3-11.9,28.7-11.9c10.4,0,20.8,4,28.7,11.9
		c7.7,7.7,11.9,17.9,11.9,28.7s-4.2,21.1-11.9,28.7v0c-15.8,15.8-41.6,15.8-57.5,0c-7.7-7.7-11.9-17.9-11.9-28.7
		C292.1,191.5,296.3,181.3,303.9,173.7L303.9,173.7z"/>
</g>
</svg>
