<?xml version="1.0" encoding="utf-8"?>
<!-- Generator: Adobe Illustrator 26.5.0, SVG Export Plug-In . SVG Version: 6.00 Build 0)  -->
<svg version="1.1" id="Layer_1" xmlns="http://www.w3.org/2000/svg" xmlns:xlink="http://www.w3.org/1999/xlink" x="0px" y="0px"
	 viewBox="0 0 495 495" style="enable-background:new 0 0 495 495;" xml:space="preserve">
<g>
	<path fill="#818384" d="M206.6,411.3h0.3c7.7-0.2,13.9-6.6,13.7-14.3L215,129.4c-0.2-7.6-6.4-13.7-14-13.7h-0.3c-7.7,0.2-13.9,6.6-13.7,14.3
		l5.6,267.6C192.7,405.2,199,411.3,206.6,411.3z M288.5,411.3c7.6,0,13.8-6.1,14-13.7l5.6-267.6c0.2-7.7-6-14.1-13.7-14.3h-0.3
		c-7.6,0-13.8,6.1-14,13.7L274.5,397c-0.2,7.7,6,14.1,13.7,14.3H288.5z M398.6,115.7c-7.7-0.2-14.2,5.8-14.5,13.5l-11.2,314.9
		c0,9.5-7.7,17.2-17.2,17.2H139.3c-9.5,0-17.2-7.7-17.2-17.7l-11.2-314.4c-0.3-7.7-6.8-13.7-14.5-13.5c-7.7,0.3-13.8,6.8-13.5,14.5
		l11.2,313.9c0,24.9,20.3,45.2,45.2,45.2h216.4c24.9,0,45.2-20.3,45.2-44.7l11.2-314.4C412.4,122.5,406.3,116,398.6,115.7
		L398.6,115.7z M426.8,59.7h-85.3V19.7c0-7.7-6.3-14-14-14H167.6c-7.7,0-14,6.3-14,14v40.1H68.2c-7.7,0-14,6.3-14,14s6.3,14,14,14
		h358.6c7.7,0,14-6.3,14-14S434.5,59.7,426.8,59.7L426.8,59.7z M313.5,59.7H181.6V33.7h131.9V59.7z"/>
</g>
</svg>
