<?xml version="1.0" encoding="utf-8"?>
<!-- Generator: Adobe Illustrator 26.5.0, SVG Export Plug-In . SVG Version: 6.00 Build 0)  -->
<svg fill="#818384" version="1.1" id="Layer_1" xmlns="http://www.w3.org/2000/svg" xmlns:xlink="http://www.w3.org/1999/xlink" x="0px" y="0px"
	 viewBox="0 0 450 438" style="enable-background:new 0 0 450 438;" xml:space="preserve">
<g>
	<path d="M234.6,422H72.5c-5.4,0-9.8-4.4-9.8-9.8V25.8c0-5.4,4.4-9.8,9.8-9.8h162.1c3.9,0,7-3.1,7-7s-3.1-7-7-7H72.5
		C59.4,2,48.7,12.7,48.7,25.8v386.4c0,13.1,10.7,23.8,23.8,23.8h162.1c3.9,0,7-3.1,7-7S238.5,422,234.6,422L234.6,422z M399.2,214.1
		l-96-96c-2.7-2.7-7.2-2.7-9.9,0c-2.7,2.7-2.7,7.2,0,9.9l84.1,84.1H148.8c-3.9,0-7,3.1-7,7s3.1,7,7,7h228.5l-84.1,84.1
		c-2.7,2.7-2.7,7.2,0,9.9c1.4,1.4,3.2,2.1,4.9,2.1s3.6-0.7,4.9-2.1l96-96c1.3-1.3,2.1-3.1,2.1-4.9
		C401.3,217.1,400.5,215.4,399.2,214.1L399.2,214.1z"/>
</g>
</svg>
