<?xml version="1.0" encoding="utf-8"?>
<!-- Generator: Adobe Illustrator 26.5.0, SVG Export Plug-In . SVG Version: 6.00 Build 0)  -->
<svg version="1.1" id="Layer_1" xmlns="http://www.w3.org/2000/svg" xmlns:xlink="http://www.w3.org/1999/xlink" x="0px" y="0px"
	 viewBox="0 0 489 489" style="enable-background:new 0 0 489 489;" xml:space="preserve">
<style type="text/css">
	.st0{fill-rule:evenodd;clip-rule:evenodd;}
</style>
<path fill="#818384" class="st0" d="M127,6.5c-27.6,0-50.3,22.7-50.3,50.3v411.7c0,5.1,2.8,9.8,7.2,12.2c4.4,2.5,9.9,2.3,14.2-0.3l146.4-90.8
	l146.4,90.8c4.3,2.7,9.7,2.8,14.2,0.3c4.4-2.5,7.2-7.1,7.2-12.2V56.8c0-27.6-22.7-50.3-50.3-50.3L127,6.5z M127,34.5h235
	c12.6,0,22.3,9.7,22.3,22.3v386.6l-132.5-82.2c-4.5-2.8-10.2-2.8-14.7,0l-132.5,82.2V56.8C104.7,44.2,114.4,34.5,127,34.5L127,34.5z
	"/>
</svg>
