<?xml version="1.0" encoding="utf-8"?>
<!-- Generator: Adobe Illustrator 26.5.0, SVG Export Plug-In . SVG Version: 6.00 Build 0)  -->
<svg fill="#818384" version="1.1" id="Layer_1" xmlns="http://www.w3.org/2000/svg" xmlns:xlink="http://www.w3.org/1999/xlink" x="0px" y="0px"
	 viewBox="0 0 498 498" style="enable-background:new 0 0 498 498;" xml:space="preserve">
<g>
	<path d="M493.7,475L332.4,313.7c31.7-36.8,47.9-84.5,45.2-133c-2.7-48.5-24.1-94.1-59.7-127.1c-35.6-33-82.6-51-131.2-50.1
		C138.1,4.4,91.8,24.1,57.5,58.4c-34.3,34.3-54,80.7-54.9,129.2c-0.9,48.6,17.1,95.6,50.1,131.2c33,35.6,78.6,57,127.1,59.7
		c48.5,2.7,96.2-13.5,133-45.2L474,494.7c5.5,5.5,14.3,5.5,19.8,0C499.2,489.2,499.1,480.4,493.7,475L493.7,475z M77,304.1
		c-30-30-46.8-70.7-46.8-113.1C30.2,148.7,47,108,77,78s70.6-46.8,113-46.8s83.1,16.8,113,46.8c30,30,46.8,70.6,46.8,113.1
		c0,42.4-16.8,83.1-46.8,113.1c-29.8,30.3-70.6,47.3-113.1,47.3C147.6,351.4,106.9,334.4,77,304.1L77,304.1z"/>
</g>
</svg>
