<?xml version="1.0" encoding="utf-8"?>
<!-- Generator: Adobe Illustrator 26.5.0, SVG Export Plug-In . SVG Version: 6.00 Build 0)  -->
<svg version="1.1" id="Layer_1" xmlns="http://www.w3.org/2000/svg" xmlns:xlink="http://www.w3.org/1999/xlink" x="0px" y="0px"
	 viewBox="0 0 485 485" style="enable-background:new 0 0 485 485;" xml:space="preserve">
<g>
	<path fill="#818384" d="M84.4,126.7h28c12.7,0,23.1-10.3,23.1-23.1c0-12.7-10.3-23.1-23.1-23.1l-28,0C40,80.6,4,116.6,4,161v239.8
		c0,44.4,36,80.4,80.4,80.4h239.8c44.4,0,80.4-36,80.4-80.4v-28c0-12.7-10.3-23.1-23.1-23.1s-23.1,10.3-23.1,23.1v28
		c0,18.9-15.4,34.3-34.3,34.3H84.4c-18.9,0-34.3-15.4-34.3-34.3V161C50.2,142,65.5,126.7,84.4,126.7L84.4,126.7z"/>
	<path fill="#818384" d="M196.6,288.2c9,9,23.6,9,32.6,0L433.9,83.5v141.7c0,12.7,10.3,23.1,23.1,23.1s23.1-10.3,23.1-23.1V27.8c0-3-0.6-6-1.8-8.8
		c-1.2-2.8-2.8-5.4-5-7.5c-2.2-2.2-4.7-3.8-7.5-5c-2.8-1.2-5.8-1.8-8.8-1.8H259.5c-12.7,0-23.1,10.3-23.1,23.1
		c0,12.7,10.3,23.1,23.1,23.1v0h141.7L196.6,255.6C187.6,264.6,187.6,279.2,196.6,288.2L196.6,288.2z"/>
</g>
</svg>
